<svg width="169" height="30" viewBox="0 0 169 30" fill="none" xmlns="http://www.w3.org/2000/svg">
<path d="M10 29.4C7.81333 29.4 5.94667 29 4.4 28.2C2.85333 27.4 1.48 26.24 0.28 24.72L2.84 22.16C3.72 23.3867 4.73333 24.32 5.88 24.96C7.02667 25.5733 8.44 25.88 10.12 25.88C11.7733 25.88 13.0933 25.52 14.08 24.8C15.0933 24.08 15.6 23.0933 15.6 21.84C15.6 20.8 15.36 19.96 14.88 19.32C14.4 18.68 13.7467 18.16 12.92 17.76C12.12 17.3333 11.24 16.96 10.28 16.64C9.32 16.2933 8.36 15.9333 7.4 15.56C6.44 15.16 5.56 14.68 4.76 14.12C3.96 13.5333 3.30667 12.7733 2.8 11.84C2.32 10.9067 2.08 9.73333 2.08 8.32C2.08 6.74667 2.45333 5.41333 3.2 4.32C3.97333 3.2 5.01333 2.34666 6.32 1.76C7.65333 1.14666 9.14667 0.839998 10.8 0.839998C12.6133 0.839998 14.24 1.2 15.68 1.92C17.12 2.61333 18.2933 3.53333 19.2 4.68L16.64 7.24C15.8133 6.28 14.92 5.56 13.96 5.08C13.0267 4.6 11.9467 4.36 10.72 4.36C9.22667 4.36 8.04 4.69333 7.16 5.36C6.28 6 5.84 6.90667 5.84 8.08C5.84 9.01333 6.08 9.77333 6.56 10.36C7.06667 10.92 7.72 11.4 8.52 11.8C9.32 12.2 10.2 12.5733 11.16 12.92C12.1467 13.24 13.12 13.6 14.08 14C15.04 14.4 15.92 14.9067 16.72 15.52C17.52 16.1333 18.16 16.9333 18.64 17.92C19.1467 18.88 19.4 20.0933 19.4 21.56C19.4 24.0133 18.5467 25.9333 16.84 27.32C15.16 28.7067 12.88 29.4 10 29.4ZM26.7475 29V2.04H30.3475V29H26.7475ZM22.0675 13.28V10H35.0275V13.28H22.0675ZM46.1941 29.4C44.6474 29.4 43.2474 29.0533 41.9941 28.36C40.7674 27.64 39.8074 26.6533 39.1141 25.4C38.4207 24.1467 38.0741 22.6933 38.0741 21.04V10H41.6741V20.88C41.6741 21.92 41.8474 22.8267 42.1941 23.6C42.5674 24.3467 43.1007 24.92 43.7941 25.32C44.4874 25.72 45.3007 25.92 46.2341 25.92C47.6474 25.92 48.7541 25.48 49.5541 24.6C50.3541 23.6933 50.7541 22.4533 50.7541 20.88V10H54.3541V21.04C54.3541 22.6933 54.0074 24.1467 53.3141 25.4C52.6207 26.6533 51.6607 27.64 50.4341 28.36C49.2341 29.0533 47.8207 29.4 46.1941 29.4ZM67.2191 29.4C65.4591 29.4 63.8857 28.9733 62.4991 28.12C61.1124 27.24 60.0057 26.0533 59.1791 24.56C58.3791 23.0667 57.9791 21.3867 57.9791 19.52C57.9791 17.6533 58.3791 15.9733 59.1791 14.48C60.0057 12.9867 61.1124 11.8 62.4991 10.92C63.8857 10.04 65.4591 9.6 67.2191 9.6C68.6324 9.6 69.9124 9.90667 71.0591 10.52C72.2057 11.1067 73.1257 11.9333 73.8191 13C74.5391 14.04 74.9391 15.2533 75.0191 16.64V22.36C74.9391 23.72 74.5524 24.9333 73.8591 26C73.1657 27.0667 72.2457 27.9067 71.0991 28.52C69.9524 29.1067 68.6591 29.4 67.2191 29.4ZM67.8191 26C69.0191 26 70.0591 25.72 70.9391 25.16C71.8457 24.6 72.5524 23.84 73.0591 22.88C73.5657 21.8933 73.8191 20.7733 73.8191 19.52C73.8191 18.2133 73.5524 17.08 73.0191 16.12C72.5124 15.16 71.8057 14.4 70.8991 13.84C70.0191 13.28 68.9791 13 67.7791 13C66.5791 13 65.5257 13.28 64.6191 13.84C63.7124 14.4 62.9924 15.1733 62.4591 16.16C61.9524 17.12 61.6991 18.2267 61.6991 19.48C61.6991 20.76 61.9524 21.8933 62.4591 22.88C62.9924 23.84 63.7124 24.6 64.6191 25.16C65.5524 25.72 66.6191 26 67.8191 26ZM77.2191 29H73.5791V23.88L74.2591 19.24L73.5791 14.64V0.439998H77.2191V29ZM90.4603 29V2.04H94.2203V29H90.4603ZM81.0203 4.68V1.24H103.62V4.68H81.0203ZM107.5 29V10H111.1V29H107.5ZM109.3 6.2C108.634 6.2 108.087 5.98666 107.66 5.56C107.234 5.10667 107.02 4.54667 107.02 3.88C107.02 3.24 107.234 2.70667 107.66 2.28C108.087 1.82666 108.634 1.6 109.3 1.6C109.967 1.6 110.514 1.82666 110.94 2.28C111.367 2.70667 111.58 3.24 111.58 3.88C111.58 4.54667 111.367 5.10667 110.94 5.56C110.514 5.98666 109.967 6.2 109.3 6.2ZM116.406 29V10H120.006V29H116.406ZM129.246 29V17.52C129.246 16.1067 128.806 15 127.926 14.2C127.072 13.3733 125.992 12.96 124.686 12.96C123.806 12.96 123.019 13.1467 122.326 13.52C121.632 13.8933 121.072 14.4133 120.646 15.08C120.219 15.7467 120.006 16.5467 120.006 17.48L118.526 16.76C118.526 15.32 118.832 14.0667 119.446 13C120.086 11.9333 120.952 11.1067 122.046 10.52C123.139 9.90667 124.366 9.6 125.726 9.6C127.059 9.6 128.259 9.89333 129.326 10.48C130.419 11.0667 131.272 11.8933 131.886 12.96C132.526 14.0267 132.846 15.2933 132.846 16.76V29H129.246ZM142.086 29V17.52C142.086 16.1067 141.646 15 140.766 14.2C139.912 13.3733 138.846 12.96 137.566 12.96C136.686 12.96 135.886 13.1467 135.166 13.52C134.472 13.8933 133.912 14.4133 133.486 15.08C133.059 15.7467 132.846 16.5467 132.846 17.48L130.806 16.76C130.886 15.2933 131.272 14.04 131.966 13C132.686 11.9333 133.606 11.1067 134.726 10.52C135.846 9.90667 137.072 9.6 138.406 9.6C139.792 9.6 141.032 9.89333 142.126 10.48C143.219 11.0667 144.086 11.8933 144.726 12.96C145.392 14.0267 145.726 15.3067 145.726 16.8V29H142.086ZM159.424 29.4C157.531 29.4 155.824 28.9733 154.304 28.12C152.784 27.24 151.584 26.0533 150.704 24.56C149.824 23.0667 149.384 21.3733 149.384 19.48C149.384 17.6133 149.811 15.9333 150.664 14.44C151.544 12.9467 152.718 11.7733 154.184 10.92C155.678 10.04 157.344 9.6 159.184 9.6C160.944 9.6 162.491 10 163.824 10.8C165.184 11.6 166.238 12.7067 166.984 14.12C167.758 15.5333 168.144 17.1333 168.144 18.92C168.144 19.1867 168.131 19.48 168.104 19.8C168.078 20.0933 168.024 20.44 167.944 20.84H151.904V17.84H166.024L164.704 19C164.704 17.72 164.478 16.64 164.024 15.76C163.571 14.8533 162.931 14.16 162.104 13.68C161.278 13.1733 160.278 12.92 159.104 12.92C157.878 12.92 156.798 13.1867 155.864 13.72C154.931 14.2533 154.211 15 153.704 15.96C153.198 16.92 152.944 18.0533 152.944 19.36C152.944 20.6933 153.211 21.8667 153.744 22.88C154.278 23.8667 155.038 24.64 156.024 25.2C157.011 25.7333 158.144 26 159.424 26C160.491 26 161.464 25.8133 162.344 25.44C163.251 25.0667 164.024 24.5067 164.664 23.76L166.984 26.12C166.078 27.1867 164.958 28 163.624 28.56C162.318 29.12 160.918 29.4 159.424 29.4Z" fill="url(#paint0_linear_2_2)"/>
<defs>
<linearGradient id="paint0_linear_2_2" x1="-1" y1="13.5" x2="175" y2="13.5" gradientUnits="userSpaceOnUse">
<stop offset="0.025" stop-color="#EDA35A"/>
<stop offset="0.815534" stop-color="#A831D8"/>
</linearGradient>
</defs>
</svg>
